grf
version=1
nRows=9
nColumns=37
inDegrees=no
endheader
time	ground_force_1_vx	ground_force_1_vy	ground_force_1_vz	ground_force_1_px	ground_force_1_py	ground_force_1_pz	ground_moment_1_mx	ground_moment_1_my	ground_moment_1_mz	ground_force_2_vx	ground_force_2_vy	ground_force_2_vz	ground_force_2_px	ground_force_2_py	ground_force_2_pz	ground_moment_2_mx	ground_moment_2_my	ground_moment_2_mz	ground_force_3_vx	ground_force_3_vy	ground_force_3_vz	ground_force_3_px	ground_force_3_py	ground_force_3_pz	ground_moment_3_mx	ground_moment_3_my	ground_moment_3_mz	ground_force_4_vx	ground_force_4_vy	ground_force_4_vz	ground_force_4_px	ground_force_4_py	ground_force_4_pz	ground_moment_4_mx	ground_moment_4_my	ground_moment_4_mz
      1.65000000	      0.00000000	     -0.00000000	      0.00000000	      0.00000000	      0.00000000	      0.00000000	      0.00000000	      0.00000000	      0.00000000	     10.37538528	     34.32857895	   -378.30273438	   -360.55530716	  -1144.03449308	      0.00000000	      0.00000000	      0.00000000	   7541.03101175	      4.14431433	    -37.72683371	   -406.85314941	   -389.64933509	   -699.02131477	      0.00000000	      0.00000000	     -0.00000000	  -9066.52896070	      0.00000000	     -0.00000000	      0.00000000	      0.00000000	      0.00000000	      0.00000000	      0.00000000	      0.00000000	      0.00000000
      1.66000000	      0.00000000	     -0.00000000	      0.00000000	      0.00000000	      0.00000000	      0.00000000	      0.00000000	      0.00000000	      0.00000000	     10.05765057	     34.96634674	   -381.81701660	   -358.65815474	  -1143.94192391	      0.00000000	      0.00000000	      0.00000000	   7710.39897806	      3.12763931	    -37.93983105	   -407.11077881	   -387.24276448	   -698.83018405	      0.00000000	      0.00000000	     -0.00000000	  -9006.94067859	      0.00000000	     -0.00000000	      0.00000000	      0.00000000	      0.00000000	      0.00000000	      0.00000000	      0.00000000	      0.00000000
      1.67000000	      0.00000000	     -0.00000000	      0.00000000	      0.00000000	      0.00000000	      0.00000000	      0.00000000	      0.00000000	      0.00000000	     10.24217987	     35.00325775	   -383.35449219	   -357.30334348	  -1143.09207372	      0.00000000	      0.00000000	      0.00000000	   7931.37348363	      2.12340782	    -38.38127155	   -406.54324341	   -385.02035343	   -698.54733366	      0.00000000	      0.00000000	     -0.00000000	  -9196.20467177	      0.00000000	     -0.00000000	      0.00000000	      0.00000000	      0.00000000	      0.00000000	      0.00000000	      0.00000000	      0.00000000
      1.68000000	      0.00000000	     -0.00000000	      0.00000000	      0.00000000	      0.00000000	      0.00000000	      0.00000000	      0.00000000	      0.00000000	      8.84800529	     34.69380951	   -385.10058594	   -354.91704430	  -1142.72348945	      0.00000000	      0.00000000	      0.00000000	   8112.68101295	      1.44110126	    -38.74076474	   -407.45996094	   -382.41851083	   -697.84643093	      0.00000000	      0.00000000	     -0.00000000	  -9350.69776766	      0.00000000	     -0.00000000	      0.00000000	      0.00000000	      0.00000000	      0.00000000	      0.00000000	      0.00000000	      0.00000000
      1.69000000	      0.00000000	     -0.00000000	      0.00000000	      0.00000000	      0.00000000	      0.00000000	      0.00000000	      0.00000000	      0.00000000	      7.44717169	     35.45446014	   -388.88574219	   -353.34440095	  -1143.65861247	      0.00000000	      0.00000000	      0.00000000	   8332.78959037	      0.46318282	    -38.76441960	   -406.93646240	   -380.33358541	   -697.60675241	      0.00000000	      0.00000000	      0.00000000	  -9304.54251303	      0.00000000	     -0.00000000	      0.00000000	      0.00000000	      0.00000000	      0.00000000	      0.00000000	      0.00000000	      0.00000000
      1.70000000	      0.00000000	     -0.00000000	      0.00000000	      0.00000000	      0.00000000	      0.00000000	      0.00000000	      0.00000000	      0.00000000	      5.88474798	     36.31533813	   -391.83215332	   -351.72502351	  -1144.21642586	      0.00000000	      0.00000000	      0.00000000	   8412.54802937	     -0.58968694	    -38.97063822	   -406.41247559	   -378.26473966	   -697.25416404	      0.00000000	      0.00000000	      0.00000000	  -9427.54315141	      0.00000000	     -0.00000000	      0.00000000	      0.00000000	      0.00000000	      0.00000000	      0.00000000	      0.00000000	      0.00000000
      1.71000000	      0.00000000	     -0.00000000	      0.00000000	      0.00000000	      0.00000000	      0.00000000	      0.00000000	      0.00000000	      0.00000000	      4.97095108	     37.44932556	   -393.77493286	   -350.17255712	  -1143.74475071	      0.00000000	      0.00000000	      0.00000000	   8634.28862350	     -1.47323525	    -39.54352557	   -406.16043091	   -375.53763270	   -697.10514767	      0.00000000	      0.00000000	     -0.00000000	  -9600.23517878	      0.00000000	     -0.00000000	      0.00000000	      0.00000000	      0.00000000	      0.00000000	      0.00000000	      0.00000000	      0.00000000
      1.72000000	      0.00000000	     -0.00000000	      0.00000000	      0.00000000	      0.00000000	      0.00000000	      0.00000000	      0.00000000	      0.00000000	      4.03385162	     37.91994858	   -395.87475586	   -348.25635969	  -1144.97181010	      0.00000000	      0.00000000	      0.00000000	   8665.70068944	     -1.99103965	    -39.74475843	   -408.04220581	   -373.16721898	   -694.91686850	      0.00000000	     -0.00000000	     -0.00000000	  -9735.78391487	      0.00000000	     -0.00000000	      0.00000000	      0.00000000	      0.00000000	      0.00000000	      0.00000000	      0.00000000	      0.00000000
      1.73000000	      0.00000000	     -0.00000000	      0.00000000	      0.00000000	      0.00000000	      0.00000000	      0.00000000	      0.00000000	      0.00000000	      3.22150970	     38.87567139	   -397.64120483	   -346.02775814	  -1144.62413684	      0.00000000	      0.00000000	      0.00000000	   8926.21405119	     -2.73022906	    -40.00485587	   -407.24719238	   -371.55354290	   -695.73561205	      0.00000000	      0.00000000	     -0.00000000	  -9784.60102884	      0.00000000	     -0.00000000	      0.00000000	      0.00000000	      0.00000000	      0.00000000	      0.00000000	      0.00000000	      0.00000000
